<mxfile host="app.diagrams.net" modified="2024-03-04T06:44:45.963Z" agent="Mozilla/5.0 (Macintosh; Intel Mac OS X 10_15_7) AppleWebKit/537.36 (KHTML, like Gecko) Chrome/122.0.0.0 Safari/537.36" etag="iTHKIBPmsPoEWKJGA70H" version="24.0.0" type="github">
  <diagram name="第 1 页" id="1bkn0Ovkejx9ZDLXdHxm">
    <mxGraphModel dx="1434" dy="737" grid="1" gridSize="10" guides="1" tooltips="1" connect="1" arrows="1" fold="1" page="1" pageScale="1" pageWidth="1654" pageHeight="2336" math="0" shadow="0">
      <root>
        <mxCell id="0" />
        <mxCell id="1" parent="0" />
        <mxCell id="W5AzSV3STd5MCS2JKmGn-8" value="" style="edgeStyle=orthogonalEdgeStyle;rounded=0;orthogonalLoop=1;jettySize=auto;html=1;" parent="1" target="W5AzSV3STd5MCS2JKmGn-4" edge="1">
          <mxGeometry relative="1" as="geometry">
            <mxPoint x="300" y="180" as="sourcePoint" />
          </mxGeometry>
        </mxCell>
        <mxCell id="W5AzSV3STd5MCS2JKmGn-10" value="" style="edgeStyle=orthogonalEdgeStyle;rounded=0;orthogonalLoop=1;jettySize=auto;html=1;" parent="1" source="W5AzSV3STd5MCS2JKmGn-4" target="W5AzSV3STd5MCS2JKmGn-5" edge="1">
          <mxGeometry relative="1" as="geometry" />
        </mxCell>
        <mxCell id="W5AzSV3STd5MCS2JKmGn-58" style="edgeStyle=orthogonalEdgeStyle;rounded=0;orthogonalLoop=1;jettySize=auto;html=1;endArrow=none;endFill=0;" parent="1" source="W5AzSV3STd5MCS2JKmGn-4" edge="1">
          <mxGeometry relative="1" as="geometry">
            <mxPoint x="410" y="470" as="targetPoint" />
          </mxGeometry>
        </mxCell>
        <mxCell id="W5AzSV3STd5MCS2JKmGn-4" value="身份证空校验" style="rhombus;whiteSpace=wrap;html=1;fillColor=#f8cecc;strokeColor=#b85450;" parent="1" vertex="1">
          <mxGeometry x="370" y="140" width="80" height="80" as="geometry" />
        </mxCell>
        <mxCell id="W5AzSV3STd5MCS2JKmGn-9" value="" style="edgeStyle=orthogonalEdgeStyle;rounded=0;orthogonalLoop=1;jettySize=auto;html=1;" parent="1" source="W5AzSV3STd5MCS2JKmGn-5" target="W5AzSV3STd5MCS2JKmGn-6" edge="1">
          <mxGeometry relative="1" as="geometry" />
        </mxCell>
        <mxCell id="W5AzSV3STd5MCS2JKmGn-5" value="查询支付宝账号验证成功的记录" style="rounded=0;whiteSpace=wrap;html=1;fillColor=#ffe6cc;strokeColor=#d79b00;" parent="1" vertex="1">
          <mxGeometry x="530" y="150" width="120" height="60" as="geometry" />
        </mxCell>
        <mxCell id="W5AzSV3STd5MCS2JKmGn-13" value="" style="edgeStyle=orthogonalEdgeStyle;rounded=0;orthogonalLoop=1;jettySize=auto;html=1;" parent="1" source="W5AzSV3STd5MCS2JKmGn-6" target="W5AzSV3STd5MCS2JKmGn-11" edge="1">
          <mxGeometry relative="1" as="geometry" />
        </mxCell>
        <mxCell id="W5AzSV3STd5MCS2JKmGn-15" value="" style="edgeStyle=orthogonalEdgeStyle;rounded=0;orthogonalLoop=1;jettySize=auto;html=1;" parent="1" source="W5AzSV3STd5MCS2JKmGn-6" target="W5AzSV3STd5MCS2JKmGn-7" edge="1">
          <mxGeometry relative="1" as="geometry" />
        </mxCell>
        <mxCell id="W5AzSV3STd5MCS2JKmGn-6" value="是否查询到数据" style="rhombus;whiteSpace=wrap;html=1;fillColor=#f8cecc;strokeColor=#b85450;" parent="1" vertex="1">
          <mxGeometry x="747" y="140" width="80" height="80" as="geometry" />
        </mxCell>
        <mxCell id="W5AzSV3STd5MCS2JKmGn-17" value="" style="edgeStyle=orthogonalEdgeStyle;rounded=0;orthogonalLoop=1;jettySize=auto;html=1;" parent="1" source="W5AzSV3STd5MCS2JKmGn-7" target="W5AzSV3STd5MCS2JKmGn-14" edge="1">
          <mxGeometry relative="1" as="geometry" />
        </mxCell>
        <mxCell id="W5AzSV3STd5MCS2JKmGn-7" value="查询实名验证记录表" style="rounded=0;whiteSpace=wrap;html=1;fillColor=#ffe6cc;strokeColor=#d79b00;" parent="1" vertex="1">
          <mxGeometry x="920" y="150" width="120" height="60" as="geometry" />
        </mxCell>
        <mxCell id="W5AzSV3STd5MCS2JKmGn-41" value="" style="edgeStyle=orthogonalEdgeStyle;rounded=0;orthogonalLoop=1;jettySize=auto;html=1;" parent="1" source="W5AzSV3STd5MCS2JKmGn-11" target="W5AzSV3STd5MCS2JKmGn-40" edge="1">
          <mxGeometry relative="1" as="geometry" />
        </mxCell>
        <mxCell id="W5AzSV3STd5MCS2JKmGn-11" value="请求支付宝账号验证接口" style="rounded=0;whiteSpace=wrap;html=1;fillColor=#ffe6cc;strokeColor=#d79b00;" parent="1" vertex="1">
          <mxGeometry x="727" y="300" width="120" height="60" as="geometry" />
        </mxCell>
        <mxCell id="W5AzSV3STd5MCS2JKmGn-37" value="" style="edgeStyle=orthogonalEdgeStyle;rounded=0;orthogonalLoop=1;jettySize=auto;html=1;" parent="1" source="W5AzSV3STd5MCS2JKmGn-14" target="W5AzSV3STd5MCS2JKmGn-36" edge="1">
          <mxGeometry relative="1" as="geometry" />
        </mxCell>
        <mxCell id="W5AzSV3STd5MCS2JKmGn-50" style="edgeStyle=orthogonalEdgeStyle;rounded=0;orthogonalLoop=1;jettySize=auto;html=1;entryX=0.5;entryY=0;entryDx=0;entryDy=0;" parent="1" source="W5AzSV3STd5MCS2JKmGn-14" target="W5AzSV3STd5MCS2JKmGn-34" edge="1">
          <mxGeometry relative="1" as="geometry" />
        </mxCell>
        <mxCell id="W5AzSV3STd5MCS2JKmGn-14" value="是否查询到数据" style="rhombus;whiteSpace=wrap;html=1;fillColor=#f8cecc;strokeColor=#b85450;" parent="1" vertex="1">
          <mxGeometry x="1140" y="140" width="80" height="80" as="geometry" />
        </mxCell>
        <mxCell id="W5AzSV3STd5MCS2JKmGn-55" style="edgeStyle=orthogonalEdgeStyle;rounded=0;orthogonalLoop=1;jettySize=auto;html=1;endArrow=none;endFill=0;" parent="1" source="W5AzSV3STd5MCS2JKmGn-18" edge="1">
          <mxGeometry relative="1" as="geometry">
            <mxPoint x="1620" y="570" as="targetPoint" />
          </mxGeometry>
        </mxCell>
        <mxCell id="W5AzSV3STd5MCS2JKmGn-18" value="设置支付方式为支付宝" style="rounded=0;whiteSpace=wrap;html=1;fillColor=#ffe6cc;strokeColor=#d79b00;" parent="1" vertex="1">
          <mxGeometry x="1470" y="148" width="120" height="60" as="geometry" />
        </mxCell>
        <mxCell id="W5AzSV3STd5MCS2JKmGn-68" style="edgeStyle=orthogonalEdgeStyle;rounded=0;orthogonalLoop=1;jettySize=auto;html=1;" parent="1" source="W5AzSV3STd5MCS2JKmGn-20" edge="1">
          <mxGeometry relative="1" as="geometry">
            <mxPoint x="1530" y="570" as="targetPoint" />
          </mxGeometry>
        </mxCell>
        <mxCell id="W5AzSV3STd5MCS2JKmGn-20" value="设置支付方式为银行卡" style="rounded=0;whiteSpace=wrap;html=1;fillColor=#ffe6cc;strokeColor=#d79b00;" parent="1" vertex="1">
          <mxGeometry x="1470" y="440" width="120" height="60" as="geometry" />
        </mxCell>
        <mxCell id="W5AzSV3STd5MCS2JKmGn-28" value="开始" style="strokeWidth=2;html=1;shape=mxgraph.flowchart.terminator;whiteSpace=wrap;fillColor=#ffe6cc;strokeColor=#d79b00;" parent="1" vertex="1">
          <mxGeometry x="200" y="150" width="100" height="60" as="geometry" />
        </mxCell>
        <mxCell id="W5AzSV3STd5MCS2JKmGn-29" value="结束" style="strokeWidth=2;html=1;shape=mxgraph.flowchart.terminator;whiteSpace=wrap;fillColor=#ffe6cc;strokeColor=#d79b00;" parent="1" vertex="1">
          <mxGeometry x="200" y="540" width="100" height="60" as="geometry" />
        </mxCell>
        <mxCell id="W5AzSV3STd5MCS2JKmGn-30" value="N" style="text;html=1;align=center;verticalAlign=middle;resizable=0;points=[];autosize=1;strokeColor=none;fillColor=none;" parent="1" vertex="1">
          <mxGeometry x="785" y="238" width="30" height="30" as="geometry" />
        </mxCell>
        <mxCell id="W5AzSV3STd5MCS2JKmGn-31" value="Y" style="text;html=1;align=center;verticalAlign=middle;resizable=0;points=[];autosize=1;strokeColor=none;fillColor=none;" parent="1" vertex="1">
          <mxGeometry x="852" y="178" width="30" height="30" as="geometry" />
        </mxCell>
        <mxCell id="W5AzSV3STd5MCS2JKmGn-32" value="Y" style="text;html=1;align=center;verticalAlign=middle;resizable=0;points=[];autosize=1;strokeColor=none;fillColor=none;" parent="1" vertex="1">
          <mxGeometry x="465" y="178" width="30" height="30" as="geometry" />
        </mxCell>
        <mxCell id="W5AzSV3STd5MCS2JKmGn-52" style="edgeStyle=orthogonalEdgeStyle;rounded=0;orthogonalLoop=1;jettySize=auto;html=1;entryX=0;entryY=0.5;entryDx=0;entryDy=0;" parent="1" source="W5AzSV3STd5MCS2JKmGn-34" target="W5AzSV3STd5MCS2JKmGn-18" edge="1">
          <mxGeometry relative="1" as="geometry" />
        </mxCell>
        <mxCell id="W5AzSV3STd5MCS2JKmGn-63" style="edgeStyle=orthogonalEdgeStyle;rounded=0;orthogonalLoop=1;jettySize=auto;html=1;" parent="1" source="W5AzSV3STd5MCS2JKmGn-34" edge="1">
          <mxGeometry relative="1" as="geometry">
            <mxPoint x="1350" y="470" as="targetPoint" />
          </mxGeometry>
        </mxCell>
        <mxCell id="W5AzSV3STd5MCS2JKmGn-34" value="是否认证成功" style="rhombus;whiteSpace=wrap;html=1;fillColor=#f8cecc;strokeColor=#b85450;" parent="1" vertex="1">
          <mxGeometry x="1310" y="290" width="80" height="80" as="geometry" />
        </mxCell>
        <mxCell id="W5AzSV3STd5MCS2JKmGn-51" style="edgeStyle=orthogonalEdgeStyle;rounded=0;orthogonalLoop=1;jettySize=auto;html=1;entryX=0;entryY=0.5;entryDx=0;entryDy=0;" parent="1" source="W5AzSV3STd5MCS2JKmGn-36" target="W5AzSV3STd5MCS2JKmGn-34" edge="1">
          <mxGeometry relative="1" as="geometry" />
        </mxCell>
        <mxCell id="W5AzSV3STd5MCS2JKmGn-36" value="请求实名认证接口" style="rounded=0;whiteSpace=wrap;html=1;fillColor=#ffe6cc;strokeColor=#d79b00;" parent="1" vertex="1">
          <mxGeometry x="1120" y="300" width="120" height="60" as="geometry" />
        </mxCell>
        <mxCell id="W5AzSV3STd5MCS2JKmGn-42" value="" style="edgeStyle=orthogonalEdgeStyle;rounded=0;orthogonalLoop=1;jettySize=auto;html=1;" parent="1" source="W5AzSV3STd5MCS2JKmGn-40" target="W5AzSV3STd5MCS2JKmGn-7" edge="1">
          <mxGeometry relative="1" as="geometry" />
        </mxCell>
        <mxCell id="W5AzSV3STd5MCS2JKmGn-61" style="edgeStyle=orthogonalEdgeStyle;rounded=0;orthogonalLoop=1;jettySize=auto;html=1;" parent="1" source="W5AzSV3STd5MCS2JKmGn-40" edge="1">
          <mxGeometry relative="1" as="geometry">
            <mxPoint x="980" y="470" as="targetPoint" />
          </mxGeometry>
        </mxCell>
        <mxCell id="W5AzSV3STd5MCS2JKmGn-40" value="是否注册支付宝账号" style="rhombus;whiteSpace=wrap;html=1;fillColor=#f8cecc;strokeColor=#b85450;" parent="1" vertex="1">
          <mxGeometry x="940" y="290" width="80" height="80" as="geometry" />
        </mxCell>
        <mxCell id="W5AzSV3STd5MCS2JKmGn-43" value="Y 保存支付宝验证记录" style="text;html=1;align=center;verticalAlign=middle;resizable=0;points=[];autosize=1;strokeColor=none;fillColor=none;" parent="1" vertex="1">
          <mxGeometry x="976" y="238" width="140" height="30" as="geometry" />
        </mxCell>
        <mxCell id="W5AzSV3STd5MCS2JKmGn-44" value="N" style="text;html=1;align=center;verticalAlign=middle;resizable=0;points=[];autosize=1;strokeColor=none;fillColor=none;" parent="1" vertex="1">
          <mxGeometry x="1178" y="241" width="30" height="30" as="geometry" />
        </mxCell>
        <mxCell id="W5AzSV3STd5MCS2JKmGn-45" value="Y" style="text;html=1;align=center;verticalAlign=middle;resizable=0;points=[];autosize=1;strokeColor=none;fillColor=none;" parent="1" vertex="1">
          <mxGeometry x="1265" y="178" width="30" height="30" as="geometry" />
        </mxCell>
        <mxCell id="W5AzSV3STd5MCS2JKmGn-59" value="" style="endArrow=classic;html=1;rounded=0;endFill=1;entryX=0;entryY=0.5;entryDx=0;entryDy=0;" parent="1" target="W5AzSV3STd5MCS2JKmGn-20" edge="1">
          <mxGeometry width="50" height="50" relative="1" as="geometry">
            <mxPoint x="410" y="470" as="sourcePoint" />
            <mxPoint x="1430" y="470" as="targetPoint" />
          </mxGeometry>
        </mxCell>
        <mxCell id="W5AzSV3STd5MCS2JKmGn-62" value="N" style="text;html=1;align=center;verticalAlign=middle;resizable=0;points=[];autosize=1;strokeColor=none;fillColor=none;" parent="1" vertex="1">
          <mxGeometry x="975" y="398" width="30" height="30" as="geometry" />
        </mxCell>
        <mxCell id="W5AzSV3STd5MCS2JKmGn-64" value="N" style="text;html=1;align=center;verticalAlign=middle;resizable=0;points=[];autosize=1;strokeColor=none;fillColor=none;" parent="1" vertex="1">
          <mxGeometry x="1345" y="396" width="30" height="30" as="geometry" />
        </mxCell>
        <mxCell id="W5AzSV3STd5MCS2JKmGn-65" value="Y 保存实名验证记录" style="text;html=1;align=center;verticalAlign=middle;resizable=0;points=[];autosize=1;strokeColor=none;fillColor=none;" parent="1" vertex="1">
          <mxGeometry x="1429" y="260" width="130" height="30" as="geometry" />
        </mxCell>
        <mxCell id="W5AzSV3STd5MCS2JKmGn-66" value="N" style="text;html=1;align=center;verticalAlign=middle;resizable=0;points=[];autosize=1;strokeColor=none;fillColor=none;" parent="1" vertex="1">
          <mxGeometry x="405" y="318" width="30" height="30" as="geometry" />
        </mxCell>
        <mxCell id="W5AzSV3STd5MCS2JKmGn-67" value="" style="endArrow=classic;html=1;rounded=0;" parent="1" target="W5AzSV3STd5MCS2JKmGn-29" edge="1">
          <mxGeometry width="50" height="50" relative="1" as="geometry">
            <mxPoint x="1620" y="570" as="sourcePoint" />
            <mxPoint x="900" y="370" as="targetPoint" />
          </mxGeometry>
        </mxCell>
      </root>
    </mxGraphModel>
  </diagram>
</mxfile>
